<?xml version="1.0" encoding="UTF-8"?>
<svg version="1.1" xmlns="http://www.w3.org/2000/svg" width="332" height="89">
<path d="M0 0 C8.51288887 4.00606535 12.58139541 12.36788745 15.8984375 20.74609375 C17.70018893 26.06828859 18.90761794 31.49368394 20 37 C20.35191406 36.04480469 20.70382813 35.08960938 21.06640625 34.10546875 C25.96935146 21.12698525 31.99895913 8.43459071 44.3125 1 C50.64535305 -0.71738388 56.48737556 -1.27915426 62.4375 1.75 C63.7059375 2.86375 63.7059375 2.86375 65 4 C65.763125 4.556875 66.52625 5.11375 67.3125 5.6875 C69.92142168 9.26268897 69.7425093 12.62265804 70 17 C65.71 16.67 61.42 16.34 57 16 C53.12590779 35.06526429 53.12590779 35.06526429 55 54 C58.68754757 53.50168276 60.60490662 52.89932357 63 50 C63.54898589 57.68580239 61.87830546 62.61375828 56.875 68.5 C52.59249062 70.73435272 48.72879836 70.74788244 44 70 C40.13414615 68.02594697 39.15754156 66.30965066 37.1875 62.4375 C33.23147362 49.97829047 37.91159846 36.23515162 41 24 C33.99179094 31.00820906 29.12424215 40.62727354 26 50 C26.144375 50.70125 26.28875 51.4025 26.4375 52.125 C27.50870149 57.60002984 28.03387912 63.11619458 25 68 C20.5785503 70.7308954 16.88006275 70.02323896 12 69 C10.2734375 67.7421875 10.2734375 67.7421875 9 66 C8.671875 63.80078125 8.671875 63.80078125 8.75 61.3125 C8.76933594 60.41789062 8.78867187 59.52328125 8.80859375 58.6015625 C9 56 9 56 9.8125 52.1875 C10.57977668 47.09651552 8.27088188 42.75572617 6.32421875 38.1484375 C5.05688748 35.13525461 3.99532686 32.11214878 3 29 C2.34 29.33 1.68 29.66 1 30 C0.1828824 32.83903634 -0.50532773 35.61737642 -1.125 38.5 C-1.30675781 39.27859375 -1.48851563 40.0571875 -1.67578125 40.859375 C-2.83982188 46.14569486 -3.77237797 51.5890231 -3 57 C-2.34 57.66 -1.68 58.32 -1 59 C-1 63.17292095 -1.76428413 64.73553829 -4.5625 67.875 C-8.40654562 70.73955323 -11.3152022 70.59489496 -16 70 C-19.86510915 68.31951776 -21.43852653 66.85616058 -23 63 C-25.70467459 46.6679265 -14.61394251 29.3147453 -8 15 C-13.75385507 15.50805855 -13.75385507 15.50805855 -18 19 C-18.66 19 -19.32 19 -20 19 C-19.65026661 12.47164341 -18.13822697 8.11400208 -14 3 C-9.87277355 -0.66864573 -5.28355325 -0.81501619 0 0 Z " fill="#F44564" transform="translate(31,7)"/>
<path d="M0 0 C1.640625 1.09765625 1.640625 1.09765625 3.953125 3.09765625 C3.38941086 6.36719827 2.45350234 7.92341508 -0.046875 10.09765625 C-1.036875 9.43765625 -2.026875 8.77765625 -3.046875 8.09765625 C-5.33336348 7.85658299 -5.33336348 7.85658299 -7.734375 7.97265625 C-8.94673828 7.99972656 -8.94673828 7.99972656 -10.18359375 8.02734375 C-10.79847656 8.05054688 -11.41335937 8.07375 -12.046875 8.09765625 C-12.376875 9.08765625 -12.706875 10.07765625 -13.046875 11.09765625 C-12.25023437 11.25621094 -11.45359375 11.41476563 -10.6328125 11.578125 C0.61370652 14.05454829 0.61370652 14.05454829 4.953125 19.09765625 C6.60023717 23.83310373 5.97303596 27.55285658 3.953125 32.09765625 C-0.2847357 35.4031876 -3.4673341 36.72026367 -8.98828125 36.4296875 C-13.49197899 35.70328464 -17.77295027 34.37158098 -21.046875 31.09765625 C-20.69388493 27.65600304 -20.00105808 26.02893087 -18.046875 23.09765625 C-17.386875 23.09765625 -16.726875 23.09765625 -16.046875 23.09765625 C-15.510625 23.75765625 -14.974375 24.41765625 -14.421875 25.09765625 C-10.9371433 28.03216715 -8.51134772 27.39528776 -4.046875 27.09765625 C-4.046875 25.77765625 -4.046875 24.45765625 -4.046875 23.09765625 C-4.86671875 22.8553125 -5.6865625 22.61296875 -6.53125 22.36328125 C-8.14773437 21.86054687 -8.14773437 21.86054687 -9.796875 21.34765625 C-11.39789063 20.86039063 -11.39789063 20.86039063 -13.03125 20.36328125 C-16.22381097 19.02339815 -17.86643701 17.75809699 -20.046875 15.09765625 C-21.33676001 11.22800121 -21.12046307 9.33886158 -19.921875 5.41015625 C-15.89544155 -1.70320951 -7.47684669 -3.29609081 0 0 Z " fill="#F9FAFA" transform="translate(216.046875,31.90234375)"/>
<path d="M0 0 C1.98 0 3.96 0 6 0 C8.4021604 4.8043208 8.61122229 9.73103895 9 15 C9.66 15 10.32 15 11 15 C11.12117188 14.25234375 11.24234375 13.5046875 11.3671875 12.734375 C11.61855469 11.25710937 11.61855469 11.25710937 11.875 9.75 C12.03742188 8.77546875 12.19984375 7.8009375 12.3671875 6.796875 C12.94855848 4.22735883 13.70840265 2.27928944 15 0 C16.98 0 18.96 0 21 0 C23.05362055 5.08940744 24.43179252 9.54520815 25 15 C25.66 15 26.32 15 27 15 C27.04898437 14.41992188 27.09796875 13.83984375 27.1484375 13.2421875 C27.59649405 8.56076908 28.298021 4.42514541 30 0 C31.98 0 33.96 0 36 0 C35.5523739 6.15485888 34.40631261 12.00437045 33 18 C32.82178711 18.76626709 32.64357422 19.53253418 32.45996094 20.32202148 C31.12880659 25.87119341 31.12880659 25.87119341 30 27 C27.32941149 27.14115161 24.67567762 27.04247107 22 27 C20.68 22.38 19.36 17.76 18 13 C16.68 17.62 15.36 22.24 14 27 C11.36 27 8.72 27 6 27 C-0.35559265 9.14381111 -0.35559265 9.14381111 0 0 Z " fill="#FCFCFC" transform="translate(284,40)"/>
<path d="M0 0 C2.31 0 4.62 0 7 0 C7.33 4.29 7.66 8.58 8 13 C9.65 12.01 11.3 11.02 13 10 C16.97857564 10 19.13235165 10.26796987 22.19921875 12.85546875 C24.90732671 17.58437745 24.4277788 21.96887957 24.25 27.3125 C24.23195312 28.33923828 24.21390625 29.36597656 24.1953125 30.42382812 C24.14831063 32.95017885 24.08262272 35.47460469 24 38 C21.69 38 19.38 38 17 38 C16.505 28.1 16.505 28.1 16 18 C13.69 18.66 11.38 19.32 9 20 C7.81304447 23.56086658 7.64904582 26.97331024 7.4375 30.6875 C7.37272461 31.7403418 7.37272461 31.7403418 7.30664062 32.81445312 C7.2008264 34.54275206 7.09993419 36.2713511 7 38 C4.69 38 2.38 38 0 38 C0 25.46 0 12.92 0 0 Z " fill="#FCFCFC" transform="translate(226,29)"/>
<path d="M0 0 C3.24044458 2.56535196 4.69560167 4.086805 6 8 C6 10.64 6 13.28 6 16 C0.39 16 -5.22 16 -11 16 C-9.35509414 19.01785339 -9.35509414 19.01785339 -7.1875 19.875 C-4.82567028 20.2246037 -4.82567028 20.2246037 -2.5625 18.4375 C-1.716875 17.963125 -0.87125 17.48875 0 17 C2.8125 17.8125 2.8125 17.8125 5 19 C5 23 5 23 3.1875 25.1875 C-0.66949234 28.38329365 -4.14171226 28.32937544 -9 28 C-13.15757553 26.40093249 -15.7122114 24.85311765 -18 21 C-19.74905779 15.75282664 -19.66979417 10.80844425 -17.75 5.625 C-13.2850494 -1.0724259 -7.44351075 -1.93270104 0 0 Z M-9.875 7.375 C-11.09486833 8.80762811 -11.09486833 8.80762811 -11 10 C-7.7 10 -4.4 10 -1 10 C-1.33 9.01 -1.66 8.02 -2 7 C-6.15476144 5.77936307 -6.15476144 5.77936307 -9.875 7.375 Z " fill="#F9FAF9" transform="translate(186,40)"/>
<path d="M0 0 C3.57179105 2.20387107 5.44103292 4.14360774 7 8 C7.5511073 12.80250648 7.61313642 17.39903269 5.875 21.9375 C2.42371357 25.73391508 -0.78744091 28.21096709 -6 28.5 C-10.2238281 28.26579156 -12.77771428 26.77266445 -16 24 C-19.40640257 20.13941042 -19.4509822 16.38341077 -19.2890625 11.4375 C-18.7687252 7.04979089 -17.25094629 4.13367008 -14 1.1875 C-9.30731286 -1.59878299 -5.15206703 -1.17709791 0 0 Z M-11 9 C-12.0298168 12.56475047 -12.2703227 14.35976202 -10.8125 17.8125 C-9.18888675 20.06266444 -9.18888675 20.06266444 -7.0625 21 C-4.90389184 21.15018574 -4.90389184 21.15018574 -2.8125 19.9375 C-0.34571112 17.30058774 -0.07172199 15.58609951 0 12 C-0.8844609 9.05292754 -0.8844609 9.05292754 -3 7 C-6.76968741 6.46147323 -8.25497545 6.25497545 -11 9 Z " fill="#F8F8F8" transform="translate(115,40)"/>
<path d="M0 0 C3.57179105 2.20387107 5.44103292 4.14360774 7 8 C7.56064092 12.88558515 7.67274127 17.46230568 5.6875 22 C1.65217391 26.7826087 1.65217391 26.7826087 -2 28 C-6.73039335 28.38773716 -9.05546399 28.48117872 -13.3125 26.3125 C-16.91143525 23.21574176 -18.71948133 21.26492855 -19.31640625 16.4453125 C-19.5092049 11.85546084 -19.32837169 8.7072621 -17.375 4.5 C-12.12875219 -1.02236611 -7.17909796 -1.96034409 0 0 Z M-11 9 C-12.0298168 12.56475047 -12.2703227 14.35976202 -10.8125 17.8125 C-9.20163899 20.09038718 -9.20163899 20.09038718 -7 20.875 C-4.7908249 21.13849118 -4.7908249 21.13849118 -2 20 C0.2391929 16.08141242 0.1487626 13.30785975 -1 9 C-2.88500271 6.68436913 -2.88500271 6.68436913 -6 6.75 C-9.11499729 6.68436913 -9.11499729 6.68436913 -11 9 Z " fill="#FBFCFC" transform="translate(274,40)"/>
<path d="M0 0 C2.31 0 4.62 0 7 0 C7.33773437 0.83144531 7.67546875 1.66289063 8.0234375 2.51953125 C8.46945313 3.60621094 8.91546875 4.69289063 9.375 5.8125 C9.81585938 6.89144531 10.25671875 7.97039063 10.7109375 9.08203125 C11.9479119 12.10730112 11.9479119 12.10730112 14 15 C14.34933594 14.00097656 14.69867188 13.00195312 15.05859375 11.97265625 C15.51807919 10.66921795 15.97772279 9.3658354 16.4375 8.0625 C16.66759766 7.40314453 16.89769531 6.74378906 17.13476562 6.06445312 C18.88671875 1.11328125 18.88671875 1.11328125 20 0 C22.33297433 -0.04092937 24.66705225 -0.04241723 27 0 C25.71011592 6.50805152 23.8622531 12.42019813 21.375 18.5625 C21.05015625 19.38041016 20.7253125 20.19832031 20.390625 21.04101562 C19.59978204 23.02975306 18.80075781 25.01523399 18 27 C15.03 27 12.06 27 9 27 C7.67770724 23.8162564 6.36700701 20.62852483 5.0625 17.4375 C4.50272461 16.09461914 4.50272461 16.09461914 3.93164062 14.72460938 C1.91583139 9.76680828 0.46151247 5.3403586 0 0 Z " fill="#FCFCFC" transform="translate(124,40)"/>
<path d="M0 0 C2.31 0 4.62 0 7 0 C7 8.91 7 17.82 7 27 C4.69 27 2.38 27 0 27 C0 18.09 0 9.18 0 0 Z " fill="#FCFCFC" transform="translate(155,40)"/>
<path d="M0 0 C1.1866923 3.5600769 0.641254 5.33255418 0 9 C-0.08976127 11.39451381 -0.13013653 13.79130988 -0.125 16.1875 C-0.12757812 17.39792969 -0.13015625 18.60835937 -0.1328125 19.85546875 C-0.14363859 23.02893949 -0.14363859 23.02893949 1 26 C4.68754757 25.50168276 6.60490662 24.89932357 9 22 C9.54898589 29.68580239 7.87830546 34.61375828 2.875 40.5 C-1.26797949 42.66155452 -5.41378312 42.86283063 -10 42 C-10.99 41.01 -11.98 40.02 -13 39 C-9.04 39.33 -5.08 39.66 -1 40 C-1.33 36.7 -1.66 33.4 -2 30 C-1.34 30 -0.68 30 0 30 C-0.495 28.783125 -0.99 27.56625 -1.5 26.3125 C-4.45390827 17.39451028 -3.97827658 8.45383774 0 0 Z " fill="#F44665" transform="translate(85,35)"/>
<path d="M0 0 C1.32 0 2.64 0 4 0 C4.22387853 3.91787427 3.44115183 6.39712042 2 10 C1.83201738 12.70886941 1.83201738 12.70886941 2 15 C1.01 15.33 0.02 15.66 -1 16 C-0.98839844 16.69867188 -0.97679688 17.39734375 -0.96484375 18.1171875 C-0.95130859 19.48230469 -0.95130859 19.48230469 -0.9375 20.875 C-0.92589844 21.77992187 -0.91429688 22.68484375 -0.90234375 23.6171875 C-1 26 -1 26 -2 28 C-2.46859581 34.5603413 -1.12995969 39.81297423 1 46 C-3.17912719 42.06131574 -4.121121 37.95911913 -4.375 32.3125 C-4.22483698 22.42904296 -1.40907 12.54388099 1 3 C-2.40899696 6.94307315 -5.77340432 10.90470548 -9 15 C-8.67 12.69 -8.34 10.38 -8 8 C-7.34 8 -6.68 8 -6 8 C-6 6.68 -6 5.36 -6 4 C-5.195625 3.71125 -4.39125 3.4225 -3.5625 3.125 C-0.8673532 2.26737432 -0.8673532 2.26737432 0 0 Z " fill="#D04D64" transform="translate(71,28)"/>
<path d="M0 0 C1.2684375 1.11375 1.2684375 1.11375 2.5625 2.25 C3.325625 2.806875 4.08875 3.36375 4.875 3.9375 C7.48392168 7.51268897 7.3050093 10.87265804 7.5625 15.25 C3.2725 14.92 -1.0175 14.59 -5.4375 14.25 C-5.7675 15.24 -6.0975 16.23 -6.4375 17.25 C-6.4375 15.6 -6.4375 13.95 -6.4375 12.25 C-2.1475 12.58 2.1425 12.91 6.5625 13.25 C6.0675 10.775 6.0675 10.775 5.5625 8.25 C4.2425 8.25 2.9225 8.25 1.5625 8.25 C1.52125 7.486875 1.48 6.72375 1.4375 5.9375 C0.78512939 3.02460018 0.78512939 3.02460018 -2 1.4375 C-6.94908238 -0.272183 -10.82866038 -0.76204985 -15.703125 1.12890625 C-21.19139308 3.95704439 -25.33658968 7.67438624 -29.4375 12.25 C-29.4375 8.44248932 -28.50939242 7.88939126 -25.875 5.25 C-18.65811094 -1.61361477 -9.30566405 -4.73742897 0 0 Z " fill="#C74A63" transform="translate(93.4375,8.75)"/>
<path d="M0 0 C2.76661775 3.24089508 3.92091935 6.30767244 5.125 10.375 C5.45757812 11.47585937 5.79015625 12.57671875 6.1328125 13.7109375 C6.94739651 16.80048586 7.53239278 19.84126548 8 23 C8.66 21.02 9.32 19.04 10 17 C10.33 18.32 10.66 19.64 11 21 C13.64 21.33 16.28 21.66 19 22 C17.25 27.75 17.25 27.75 15 30 C15 28.02 15 26.04 15 24 C14.05125 24.495 13.1025 24.99 12.125 25.5 C9 27 9 27 7 27 C5.24252386 22.49646738 4.80705592 18.82360189 5 14 C4.34 14 3.68 14 3 14 C1.56976822 9.32790951 0.59619955 4.86896303 0 0 Z " fill="#DC4962" transform="translate(43,21)"/>
<path d="M0 0 C0.33 0 0.66 0 1 0 C0.97679687 0.98742188 0.95359375 1.97484375 0.9296875 2.9921875 C0.91164063 4.27351563 0.89359375 5.55484375 0.875 6.875 C0.85179687 8.15117188 0.82859375 9.42734375 0.8046875 10.7421875 C0.64358476 14.08593338 0.64358476 14.08593338 3 16 C3 20.17292095 2.23571587 21.73553829 -0.5625 24.875 C-4.34375198 27.72238345 -7.39494342 27.5372566 -12 27 C-12.66 26.34 -13.32 25.68 -14 25 C-10.37 24.67 -6.74 24.34 -3 24 C-1.22241706 18.68816391 -0.76807149 14.20073826 -0.9375 8.625 C-0.9987745 6.07870425 -1.02078789 3.5480015 -1 1 C-0.67 0.67 -0.34 0.34 0 0 Z " fill="#D14762" transform="translate(27,50)"/>
<path d="M0 0 C2.97 0.495 2.97 0.495 6 1 C6.625 3.875 6.625 3.875 7 7 C5 9 5 9 1.875 9.125 C0.451875 9.063125 0.451875 9.063125 -1 9 C-1.625 6.1875 -1.625 6.1875 -2 3 C-1.34 2.01 -0.68 1.02 0 0 Z " fill="#F9F9F9" transform="translate(156,29)"/>
<path d="M0 0 C0.66 0.33 1.32 0.66 2 1 C0.7934375 1.7734375 0.7934375 1.7734375 -0.4375 2.5625 C-3.66447078 5.63205757 -3.74896257 7.64868459 -4 12 C-1.69 12 0.62 12 3 12 C3 12.66 3 13.32 3 14 C1.906875 14.103125 0.81375 14.20625 -0.3125 14.3125 C-3.98536808 14.99727202 -4.75237686 15.27919304 -7 18 C-7.66 18 -8.32 18 -9 18 C-8.65341895 11.53048701 -7.1194072 7.07187129 -3 2 C-2.01 1.34 -1.02 0.68 0 0 Z " fill="#D24964" transform="translate(20,8)"/>
<path d="M0 0 C0.99 0.495 0.99 0.495 2 1 C1.67 1.66 1.34 2.32 1 3 C8.01983721 5.72993669 14.55913954 7.48028682 22 5 C21.67 5.99 21.34 6.98 21 8 C14.01207675 10.32930775 8.49093129 8.90972782 2 6 C1.34 5.34 0.68 4.68 0 4 C0 2.68 0 1.36 0 0 Z " fill="#F0F2F1" transform="translate(195,59)"/>
<path d="M0 0 C1.18644391 3.55933174 0.64179846 5.33383622 0 9 C-0.08987149 11.37366472 -0.13013037 13.74964007 -0.125 16.125 C-0.12757812 17.32382812 -0.13015625 18.52265625 -0.1328125 19.7578125 C-0.02510069 22.38724796 0.21905536 24.50841473 1 27 C0.34 27.33 -0.32 27.66 -1 28 C-3.91152365 20.17528019 -4.46193482 11.07663444 -1.5 3.1875 C-1.005 2.135625 -0.51 1.08375 0 0 Z " fill="#D14C66" transform="translate(85,35)"/>
<path d="M0 0 C2 3 2 3 1.7578125 5.04296875 C1.171875 7.02864583 0.5859375 9.01432292 0 11 C0.66 11 1.32 11 2 11 C2 13.31 2 15.62 2 18 C2.66 18 3.32 18 4 18 C4 18.66 4 19.32 4 20 C1 19 1 19 -0.17578125 17.31640625 C-1.20793887 14.41560308 -1.2294073 12.01197222 -1.1875 8.9375 C-1.18105469 7.89464844 -1.17460938 6.85179687 -1.16796875 5.77734375 C-1 3 -1 3 0 0 Z " fill="#D74561" transform="translate(9,55)"/>
<path d="M0 0 C0.33 0.66 0.66 1.32 1 2 C-3.75 7.875 -3.75 7.875 -6 9 C-7.64142541 9.14640501 -9.2898141 9.22096589 -10.9375 9.25 C-11.81277344 9.27578125 -12.68804687 9.3015625 -13.58984375 9.328125 C-16 9 -16 9 -19 6 C-15.04 6.33 -11.08 6.66 -7 7 C-6.67 6.34 -6.34 5.68 -6 5 C-5.34 5 -4.68 5 -4 5 C-3.34 4.01 -2.68 3.02 -2 2 C-1.34 1.34 -0.68 0.68 0 0 Z " fill="#C14559" transform="translate(91,68)"/>
<path d="M0 0 C0.66 1.32 1.32 2.64 2 4 C1.34 4.66 0.68 5.32 0 6 C-0.61350042 8.1894648 -1.14559812 10.40231857 -1.625 12.625 C-1.88539062 13.81351563 -2.14578125 15.00203125 -2.4140625 16.2265625 C-2.60742188 17.14179687 -2.80078125 18.05703125 -3 19 C-3.33 19 -3.66 19 -4 19 C-4.33 15.04 -4.66 11.08 -5 7 C-4.01 7.33 -3.02 7.66 -2 8 C-1.7834375 6.576875 -1.7834375 6.576875 -1.5625 5.125 C-1 2 -1 2 0 0 Z " fill="#DF4661" transform="translate(32,31)"/>
<path d="M0 0 C0.66 0.33 1.32 0.66 2 1 C-0.42987496 3.66129162 -2.25388675 4.8824399 -5.97265625 5.1328125 C-11.77777778 5.11111111 -11.77777778 5.11111111 -14 4 C-13.67 3.01 -13.34 2.02 -13 1 C-12.34 1.33 -11.68 1.66 -11 2 C-9.30900927 1.93810017 -7.62011238 1.80415585 -5.9375 1.625 C-5.03902344 1.53476563 -4.14054687 1.44453125 -3.21484375 1.3515625 C-1.03150171 1.22733918 -1.03150171 1.22733918 0 0 Z " fill="#EFF1F0" transform="translate(276,63)"/>
<path d="M0 0 C2.4375 0.8125 2.4375 0.8125 5 2 C5.33 2.99 5.66 3.98 6 5 C4.02 4.34 2.04 3.68 0 3 C-0.66 3.66 -1.32 4.32 -2 5 C-5.625 5.125 -5.625 5.125 -9 5 C-9.33 4.34 -9.66 3.68 -10 3 C-8.72125 2.87625 -7.4425 2.7525 -6.125 2.625 C-2.65209064 2.30957601 -2.65209064 2.30957601 0 0 Z " fill="#ECF1EF" transform="translate(186,57)"/>
<path d="M0 0 C0.33 0 0.66 0 1 0 C1.25 7.625 1.25 7.625 -1 11 C-1 9.35 -1 7.7 -1 6 C-2.65 6.33 -4.3 6.66 -6 7 C-6.33 6.34 -6.66 5.68 -7 5 C-6.21625 4.731875 -5.4325 4.46375 -4.625 4.1875 C-1.71885077 3.15185568 -1.71885077 3.15185568 0 0 Z " fill="#C15064" transform="translate(93,57)"/>
<path d="M0 0 C0.66 0.33 1.32 0.66 2 1 C2 1.66 2 2.32 2 3 C1.34 3 0.68 3 0 3 C0.33 4.65 0.66 6.3 1 8 C0.01 8.66 -0.98 9.32 -2 10 C-2.33 10.99 -2.66 11.98 -3 13 C-3.66 13 -4.32 13 -5 13 C-3.58192622 8.52761347 -1.88695626 4.28853694 0 0 Z " fill="#D34C63" transform="translate(22,24)"/>
<path d="M0 0 C0 0.66 0 1.32 0 2 C-4.68493876 4.48887372 -7.9444214 3.85687773 -13 3 C-13 2.67 -13 2.34 -13 2 C-12.06027344 1.90912109 -12.06027344 1.90912109 -11.1015625 1.81640625 C-9.87566406 1.69072266 -9.87566406 1.69072266 -8.625 1.5625 C-7.81289063 1.48128906 -7.00078125 1.40007812 -6.1640625 1.31640625 C-3.85304959 0.97851447 -2.33455672 0 0 0 Z " fill="#C1425B" transform="translate(56,73)"/>
<path d="M0 0 C0.99 0.33 1.98 0.66 3 1 C1.35 4.3 -0.3 7.6 -2 11 C-3.04449911 7.86650268 -2.93423645 7.01031744 -2 4 C-1.34 4 -0.68 4 0 4 C0 2.68 0 1.36 0 0 Z " fill="#DC4B63" transform="translate(65,32)"/>
<path d="M0 0 C2.475 0.495 2.475 0.495 5 1 C5.33 3.31 5.66 5.62 6 8 C4 5 4 5 4 3 C2.68 3 1.36 3 0 3 C0 2.01 0 1.02 0 0 Z " fill="#DE4E65" transform="translate(95,14)"/>
<path d="M0 0 C0.66 0 1.32 0 2 0 C2 2.64 2 5.28 2 8 C1.01 8.33 0.02 8.66 -1 9 C-0.67 6.03 -0.34 3.06 0 0 Z " fill="#E44156" transform="translate(71,35)"/>
<path d="M0 0 C1.04449911 3.13349732 0.93423645 3.98968256 0 7 C0.66 7.33 1.32 7.66 2 8 C0.02 8.99 0.02 8.99 -2 10 C-1.125 2.25 -1.125 2.25 0 0 Z " fill="#C65063" transform="translate(13,16)"/>
</svg>
